HIERARCHY
ROOT root
{
	OFFSET 0.00 0.00 0.00
	CHANNELS 6 Xposition Yposition Zposition Zrotation Xrotation Yrotation
	JOINT lowerback
	{
		OFFSET 0 0 0
		CHANNELS 6 Xposition Yposition Zposition Zrotation Xrotation Yrotation
		JOINT upperback
		{
			OFFSET -0.214371 12.3768 -1.12219
			CHANNELS 6 Xposition Yposition Zposition Zrotation Xrotation Yrotation
			JOINT thorax
			{
				OFFSET -0.00137213 12.3873 0.296195
				CHANNELS 6 Xposition Yposition Zposition Zrotation Xrotation Yrotation
				JOINT lowerneck
				{
					OFFSET 0.0883157 12.5016 0.82912
					CHANNELS 6 Xposition Yposition Zposition Zrotation Xrotation Yrotation
					JOINT upperneck
					{
						OFFSET -1 10.1794 0.943522
						CHANNELS 6 Xposition Yposition Zposition Zrotation Xrotation Yrotation
						JOINT head
						{
							OFFSET 0.667525 10.2797 -1.57149
							CHANNELS 6 Xposition Yposition Zposition Zrotation Xrotation Yrotation
							End Site
							{
								OFFSET 0 0 0
							}
						}
					}
				}
				JOINT lclavicle
				{
					OFFSET 0.0883157 12.5016 0.82912
					CHANNELS 6 Xposition Yposition Zposition Zrotation Xrotation Yrotation
					JOINT lhumerus
					{
						OFFSET 20.61 4.45006 1.43784
						CHANNELS 6 Xposition Yposition Zposition Zrotation Xrotation Yrotation
						JOINT lradius
						{
							OFFSET 0 -30.3438 0
							CHANNELS 6 Xposition Yposition Zposition Zrotation Xrotation Yrotation
							JOINT lwrist
							{
								OFFSET 0 -18.964 0
								CHANNELS 6 Xposition Yposition Zposition Zrotation Xrotation Yrotation
								JOINT lhand
								{
									OFFSET 0 -9.48199 0
									CHANNELS 6 Xposition Yposition Zposition Zrotation Xrotation Yrotation
									JOINT lfingers
									{
										OFFSET 0 -3.17138 0
										CHANNELS 6 Xposition Yposition Zposition Zrotation Xrotation Yrotation
										End Site
										{
											OFFSET 0 -2.55685 0
										}
									}
								}
								JOINT lthumb
								{
									OFFSET 0 -9.48199 0
									CHANNELS 6 Xposition Yposition Zposition Zrotation Xrotation Yrotation
									End Site
									{
										OFFSET 0 -3.67114 0
									}
								}
							}
						}
					}
				}
				JOINT rclavicle
				{
					OFFSET 0.0883157 12.5016 0.82912
					CHANNELS 6 Xposition Yposition Zposition Zrotation Xrotation Yrotation
					JOINT rhumerus
					{
						OFFSET -20.61 4.45 1.44
						CHANNELS 6 Xposition Yposition Zposition Zrotation Xrotation Yrotation
						JOINT rradius
						{
							OFFSET 0 -29.5102 0
							CHANNELS 6 Xposition Yposition Zposition Zrotation Xrotation Yrotation
							JOINT rwrist
							{
								OFFSET 0 -19.2342 0
								CHANNELS 6 Xposition Yposition Zposition Zrotation Xrotation Yrotation
								JOINT rhand
								{
									OFFSET 0 -9.61712 0
									CHANNELS 6 Xposition Yposition Zposition Zrotation Xrotation Yrotation
									JOINT rfingers
									{
										OFFSET 0 -3.29215 0
										CHANNELS 6 Xposition Yposition Zposition Zrotation Xrotation Yrotation
										End Site
										{
											OFFSET 0 -2.557 0
										}
									}
								}
								JOINT rthumb
								{
									OFFSET 0 -9.61712 0
									CHANNELS 6 Xposition Yposition Zposition Zrotation Xrotation Yrotation
									End Site
									{
										OFFSET 0 -3.671 0
									}
								}
							}
						}
					}
				}
			}
		}
	}
	JOINT rfemur
	{
		OFFSET -8.46272 -9.62775 4.76248
		CHANNELS 6 Xposition Yposition Zposition Zrotation Xrotation Yrotation
		JOINT rtibia
		{
			OFFSET 1.00552e-005 -38.0331 0
			CHANNELS 6 Xposition Yposition Zposition Zrotation Xrotation Yrotation
			JOINT rfoot
			{
				OFFSET 1.14428e-005 -43.2815 0
				CHANNELS 6 Xposition Yposition Zposition Zrotation Xrotation Yrotation
				JOINT rtoes
				{
					OFFSET 0 -14.1868 -3.08763
					CHANNELS 6 Xposition Yposition Zposition Zrotation Xrotation Yrotation
					End Site
					{
						OFFSET 0 -7.27332 0
					}
				}
			}
		}
	}
	JOINT lfemur
	{
		OFFSET 9.10607 -9.62778 4.76249
		CHANNELS 6 Xposition Yposition Zposition Zrotation Xrotation Yrotation
		JOINT ltibia
		{
			OFFSET -1.01399e-005 -38.3535 0
			CHANNELS 6 Xposition Yposition Zposition Zrotation Xrotation Yrotation
			JOINT lfoot
			{
				OFFSET -1.12937e-005 -42.7176 0
				CHANNELS 6 Xposition Yposition Zposition Zrotation Xrotation Yrotation
				JOINT ltoes
				{
					OFFSET 0 -13.9965 -2.83857
					CHANNELS 6 Xposition Yposition Zposition Zrotation Xrotation Yrotation
					End Site
					{
						OFFSET 0 -7.16348 0
					}
				}
			}
		}
	}
}
MOTION
Frames: 8
Frame Time: 0.00833333
6.71137	81.9861	53.1993	11.0031	12.5891	-26.9512	0 0 0 2.01263	32.0134	-0.0923975	-0.214371 12.3768 -1.12219 0.909057	17.4269	-2.50804	-0.00137213 12.3873 0.296195 -0.213846	2.50983	-2.10481	0.0883157 12.5016 0.82912 4.57452	-2.09433	7.32799	-1 10.1794 0.943522 -6.92754	-24.6013	8.2982	0.667525 10.2797 -1.57149 -3.97568	-6.5437	3.6224	0.0883157 12.5016 0.82912 -15	0	-0	20.61 4.45006 1.43784 48.8635	-62.2795	-166.807	0 -30.3438 0 -180	78.4993	180	0 -18.964 0 1.36368e-014	-2.3256e-015	-109.356	0 -9.48199 0 1.22245	4.37968	-2.58917e-014	0 -3.17138 0 -0	7.12502	-0	0 -9.48199 0 25	15	-1.36605e-015	0.0883157 12.5016 0.82912 15	0	-0	-20.61 4.45 1.44 -40.9437	-35.5579	-179.934	0 -29.5102 0 -0	75.3748	-0	0 -19.2342 0 7.15134e-016	-3.08616e-015	116.093	0 -9.61712 0 1.22	4.38	-0	0 -3.29215 0 -0	7.12502	-0	0 -9.61712 0 25	15	-7.97034e-015	-8.46272 -9.62775 4.76248 0.407163	-65.8434	-12.1515	1.00552e-005 -38.0331 0 -0	80.154	-0	1.14428e-005 -43.2815 0 -89.8493	-74.7533	-89.8547	0 -14.1868 -3.08763 -0	-26.489	-0	9.10607 -9.62778 4.76249 29.7272	-57.2379	42.5809	-1.01399e-005 -38.3535 0 -180	74.6913	180	-1.12937e-005 -42.7176 0 21.6518	-73.5518	22.486	0 -13.9965 -2.83857 -0	-46.7643	-0
6.69409	81.9105	53.3745	10.9586	12.3853	-26.9931	0 0 0 1.97614	32.3276	-0.0736735	-0.214371 12.3768 -1.12219 0.891762	17.4306	-2.50831	-0.00137213 12.3873 0.296195 -0.209355	2.39297	-2.11407	0.0883157 12.5016 0.82912 4.55233	-2.0703	7.31333	-1 10.1794 0.943522 -6.90455	-24.6301	8.27989	0.667525 10.2797 -1.57149 -3.96578	-6.56082	3.61269	0.0883157 12.5016 0.82912 -15	0	-0	20.61 4.45006 1.43784 48.9356	-62.2443	-166.741	0 -30.3438 0 -180	78.5097	180	0 -18.964 0 1.36365e-014	-2.3264e-015	-109.363	0 -9.48199 0 1.22245	4.37968	-2.58917e-014	0 -3.17138 0 -0	7.12502	-0	0 -9.48199 0 25	15	-1.36605e-015	0.0883157 12.5016 0.82912 15	0	-0	-20.61 4.45 1.44 -40.9666	-35.6373	-179.973	0 -29.5102 0 -0	75.4659	-0	0 -19.2342 0 7.20205e-016	-3.09649e-015	116.187	0 -9.61712 0 1.22	4.38	-0	0 -3.29215 0 -0	7.12502	-0	0 -9.61712 0 25	15	-7.97034e-015	-8.46272 -9.62775 4.76248 0.469269	-65.6382	-11.9859	1.00552e-005 -38.0331 0 -0	80.3981	-0	1.14428e-005 -43.2815 0 -90.5229	-74.5583	-90.5041	0 -14.1868 -3.08763 -0	-26.8154	-0	9.10607 -9.62778 4.76249 31.0165	-58.3093	43.2822	-1.01399e-005 -38.3535 0 -180	74.6695	180	-1.12937e-005 -42.7176 0 22.24	-73.5978	23.087	0 -13.9965 -2.83857 -0	-46.8064	-0
6.67689	81.8337	53.5527	10.9165	12.1773	-27.0328	0 0 0 1.93536	32.641	-0.0551894	-0.214371 12.3768 -1.12219 0.873752	17.435	-2.50924	-0.00137213 12.3873 0.296195 -0.203115	2.27909	-2.12472	0.0883157 12.5016 0.82912 4.53017	-2.0452	7.29942	-1 10.1794 0.943522 -6.88234	-24.6564	8.26286	0.667525 10.2797 -1.57149 -3.95613	-6.57716	3.60386	0.0883157 12.5016 0.82912 -15	0	-0	20.61 4.45006 1.43784 49.0185	-62.2082	-166.663	0 -30.3438 0 -180	78.5237	180	0 -18.964 0 1.3636e-014	-2.32779e-015	-109.375	0 -9.48199 0 1.22245	4.37968	-2.58917e-014	0 -3.17138 0 -0	7.12502	-0	0 -9.48199 0 25	15	-1.36605e-015	0.0883157 12.5016 0.82912 15	0	-0	-20.61 4.45 1.44 -40.9889	-35.7166	179.989	0 -29.5102 0 -0	75.5561	-0	0 -19.2342 0 7.2524e-016	-3.10671e-015	116.28	0 -9.61712 0 1.22	4.38	-0	0 -3.29215 0 -0	7.12502	-0	0 -9.61712 0 25	15	-7.97034e-015	-8.46272 -9.62775 4.76248 0.530419	-65.4272	-11.8116	1.00552e-005 -38.0331 0 -0	80.6421	-0	1.14428e-005 -43.2815 0 -91.2089	-74.3698	-91.1643	0 -14.1868 -3.08763 -0	-27.1246	-0	9.10607 -9.62778 4.76249 32.2919	-59.3618	43.9846	-1.01399e-005 -38.3535 0 -180	74.7297	180	-1.12937e-005 -42.7176 0 22.8703	-73.6274	23.7326	0 -13.9965 -2.83857 -0	-46.859	-0
6.65948	81.7581	53.7339	10.8758	11.966	-27.0711	0 0 0 1.8909	32.9501	-0.0364673	-0.214371 12.3768 -1.12219 0.856098	17.441	-2.51342	-0.00137213 12.3873 0.296195 -0.195704	2.17043	-2.13641	0.0883157 12.5016 0.82912 4.50889	-2.01977	7.28595	-1 10.1794 0.943522 -6.86141	-24.6796	8.24656	0.667525 10.2797 -1.57149 -3.94692	-6.59241	3.59561	0.0883157 12.5016 0.82912 -15	0	-0	20.61 4.45006 1.43784 49.1096	-62.1717	-166.575	0 -30.3438 0 -180	78.5412	180	0 -18.964 0 1.36354e-014	-2.32975e-015	-109.392	0 -9.48199 0 1.22245	4.37968	-2.58917e-014	0 -3.17138 0 -0	7.12502	-0	0 -9.48199 0 25	15	-1.36605e-015	0.0883157 12.5016 0.82912 15	0	-0	-20.61 4.45 1.44 -41.0113	-35.796	179.951	0 -29.5102 0 -0	75.645	-0	0 -19.2342 0 7.30236e-016	-3.1168e-015	116.372	0 -9.61712 0 1.22	4.38	-0	0 -3.29215 0 -0	7.12502	-0	0 -9.61712 0 25	15	-7.97034e-015	-8.46272 -9.62775 4.76248 0.591066	-65.2106	-11.6298	1.00552e-005 -38.0331 0 -0	80.886	-0	1.14428e-005 -43.2815 0 -91.9158	-74.1931	-91.8435	0 -14.1868 -3.08763 -0	-27.4076	-0	9.10607 -9.62778 4.76249 33.5559	-60.3921	44.6911	-1.01399e-005 -38.3535 0 -180	74.8695	180	-1.12937e-005 -42.7176 0 23.535	-73.6425	24.4145	0 -13.9965 -2.83857 -0	-46.9296	-0
6.64139	81.6813	53.9161	10.8358	11.7526	-27.1087	0 0 0 1.84324	33.2524	-0.016853	-0.214371 12.3768 -1.12219 0.83837	17.449	-2.51843	-0.00137213 12.3873 0.296195 -0.187642	2.06841	-2.1487	0.0883157 12.5016 0.82912 4.48929	-1.99481	7.27254	-1 10.1794 0.943522 -6.84223	-24.6992	8.23037	0.667525 10.2797 -1.57149 -3.93828	-6.60621	3.58758	0.0883157 12.5016 0.82912 -15	0	-0	20.61 4.45006 1.43784 49.2055	-62.1344	-166.48	0 -30.3438 0 -180	78.5618	180	0 -18.964 0 1.36345e-014	-2.33218e-015	-109.413	0 -9.48199 0 1.22245	4.37968	-2.58917e-014	0 -3.17138 0 -0	7.12502	-0	0 -9.48199 0 25	15	-1.36605e-015	0.0883157 12.5016 0.82912 15	0	-0	-20.61 4.45 1.44 -41.0337	-35.8751	179.913	0 -29.5102 0 -0	75.7323	-0	0 -19.2342 0 7.35085e-016	-3.12657e-015	116.461	0 -9.61712 0 1.22	4.38	-0	0 -3.29215 0 -0	7.12502	-0	0 -9.61712 0 25	15	-7.97034e-015	-8.46272 -9.62775 4.76248 0.652239	-64.9885	-11.441	1.00552e-005 -38.0331 0 -0	81.1296	-0	1.14428e-005 -43.2815 0 -92.6492	-74.032	-92.5472	0 -14.1868 -3.08763 -0	-27.6591	-0	9.10607 -9.62778 4.76249 34.8113	-61.3969	45.405	-1.01399e-005 -38.3535 0 -180	75.0872	180	-1.12937e-005 -42.7176 0 24.2204	-73.6467	25.1184	0 -13.9965 -2.83857 -0	-47.0231	-0
6.62258	81.6046	54.1012	10.7957	11.5379	-27.1466	0 0 0 1.7926	33.5465	0.00442288	-0.214371 12.3768 -1.12219 0.820607	17.4592	-2.52338	-0.00137213 12.3873 0.296195 -0.17936	1.97354	-2.16105	0.0883157 12.5016 0.82912 4.472	-1.97113	7.25879	-1 10.1794 0.943522 -6.82521	-24.7144	8.2136	0.667525 10.2797 -1.57149 -3.93029	-6.61823	3.57944	0.0883157 12.5016 0.82912 -15	0	-0	20.61 4.45006 1.43784 49.302	-62.0958	-166.383	0 -30.3438 0 -180	78.5847	180	0 -18.964 0 1.36335e-014	-2.33495e-015	-109.437	0 -9.48199 0 1.22245	4.37968	-2.58917e-014	0 -3.17138 0 -0	7.12502	-0	0 -9.48199 0 25	15	-1.36605e-015	0.0883157 12.5016 0.82912 15	0	-0	-20.61 4.45 1.44 -41.0562	-35.953	179.875	0 -29.5102 0 -0	75.8182	-0	0 -19.2342 0 7.39785e-016	-3.13599e-015	116.547	0 -9.61712 0 1.22	4.38	-0	0 -3.29215 0 -0	7.12502	-0	0 -9.61712 0 25	15	-7.97034e-015	-8.46272 -9.62775 4.76248 0.715387	-64.7608	-11.2456	1.00552e-005 -38.0331 0 -0	81.3721	-0	1.14428e-005 -43.2815 0 -93.4112	-73.8881	-93.2776	0 -14.1868 -3.08763 -0	-27.8768	-0	9.10607 -9.62778 4.76249 36.0612	-62.3722	46.1302	-1.01399e-005 -38.3535 0 -180	75.3813	180	-1.12937e-005 -42.7176 0 24.9093	-73.6443	25.8261	0 -13.9965 -2.83857 -0	-47.1409	-0
6.60313	81.5289	54.2883	10.755	11.3228	-27.186	0 0 0 1.73905	33.832	0.0281658	-0.214371 12.3768 -1.12219 0.802712	17.4713	-2.52713	-0.00137213 12.3873 0.296195 -0.171187	1.88551	-2.17292	0.0883157 12.5016 0.82912 4.45742	-1.94943	7.2443	-1 10.1794 0.943522 -6.81061	-24.7248	8.19562	0.667525 10.2797 -1.57149 -3.92297	-6.62815	3.57087	0.0883157 12.5016 0.82912 -15	0	-0	20.61 4.45006 1.43784 49.3947	-62.0546	-166.287	0 -30.3438 0 -180	78.6089	180	0 -18.964 0 1.36326e-014	-2.33761e-015	-109.46	0 -9.48199 0 1.22245	4.37968	-2.58917e-014	0 -3.17138 0 -0	7.12502	-0	0 -9.48199 0 25	15	-1.36605e-015	0.0883157 12.5016 0.82912 15	0	-0	-20.61 4.45 1.44 -41.0786	-36.0284	179.837	0 -29.5102 0 -0	75.9029	-0	0 -19.2342 0 7.44335e-016	-3.14508e-015	116.63	0 -9.61712 0 1.22	4.38	-0	0 -3.29215 0 -0	7.12502	-0	0 -9.61712 0 25	15	-7.97034e-015	-8.46272 -9.62775 4.76248 0.782118	-64.5275	-11.0437	1.00552e-005 -38.0331 0 -0	81.6125	-0	1.14428e-005 -43.2815 0 -94.2011	-73.7612	-94.0341	0 -14.1868 -3.08763 -0	-28.0624	-0	9.10607 -9.62778 4.76249 37.3079	-63.3141	46.87	-1.01399e-005 -38.3535 0 -180	75.7507	180	-1.12937e-005 -42.7176 0 25.5827	-73.6391	26.5177	0 -13.9965 -2.83857 -0	-47.2803	-0
6.58271	81.4556	54.4763	10.7131	11.1081	-27.228	0 0 0 1.68253	34.1091	0.0551262	-0.214371 12.3768 -1.12219 0.784366	17.4847	-2.52789	-0.00137213 12.3873 0.296195 -0.163358	1.80338	-2.18376	0.0883157 12.5016 0.82912 4.44566	-1.93025	7.22871	-1 10.1794 0.943522 -6.79859	-24.7296	8.17591	0.667525 10.2797 -1.57149 -3.91626	-6.63571	3.56162	0.0883157 12.5016 0.82912 -15	0	-0	20.61 4.45006 1.43784 49.479	-62.0093	-166.199	0 -30.3438 0 -180	78.6332	180	0 -18.964 0 1.36317e-014	-2.34015e-015	-109.482	0 -9.48199 0 1.22245	4.37968	-2.58917e-014	0 -3.17138 0 -0	7.12502	-0	0 -9.48199 0 25	15	-1.36605e-015	0.0883157 12.5016 0.82912 15	0	-0	-20.61 4.45 1.44 -41.0983	-36.0998	179.798	0 -29.5102 0 -0	75.9871	-0	0 -19.2342 0 7.48732e-016	-3.15383e-015	116.71	0 -9.61712 0 1.22	4.38	-0	0 -3.29215 0 -0	7.12502	-0	0 -9.61712 0 25	15	-7.97034e-015	-8.46272 -9.62775 4.76248 0.854001	-64.2885	-10.8352	1.00552e-005 -38.0331 0 -0	81.8496	-0	1.14428e-005 -43.2815 0 -95.0146	-73.6496	-94.8128	0 -14.1868 -3.08763 -0	-28.2201	-0	9.10607 -9.62778 4.76249 38.553	-64.2184	47.6269	-1.01399e-005 -38.3535 0 -180	76.195	180	-1.12937e-005 -42.7176 0 26.2215	-73.6335	27.1733	0 -13.9965 -2.83857 -0	-47.4338	-0
